<?xml version="1.0" encoding="utf-8"?>
<!-- Generator: Adobe Illustrator 25.0.0, SVG Export Plug-In . SVG Version: 6.00 Build 0)  -->
<svg version="1.1" id="Layer_1" xmlns="http://www.w3.org/2000/svg" xmlns:xlink="http://www.w3.org/1999/xlink" x="0px" y="0px"
	 viewBox="0 0 3000 934.77" style="enable-background:new 0 0 3000 934.77;" xml:space="preserve">
<style type="text/css">
	.st0{fill:#000131;}
	.st1{fill:url(#SVGID_1_);}
	.st2{fill:url(#SVGID_2_);}
	.st3{fill:url(#SVGID_3_);}
	.st4{fill:url(#SVGID_4_);}
	.st5{fill:#00253C;}
	.st6{fill:url(#SVGID_5_);}
	.st7{fill:url(#SVGID_6_);}
	.st8{fill:url(#SVGID_7_);}
	.st9{fill:url(#SVGID_8_);}
	.st10{fill:url(#SVGID_9_);}
	.st11{fill:url(#SVGID_10_);}
	.st12{fill:url(#SVGID_11_);}
	.st13{fill:url(#SVGID_12_);}
	.st14{fill:url(#SVGID_13_);}
	.st15{fill:url(#SVGID_14_);}
	.st16{fill:url(#SVGID_15_);}
	.st17{fill:url(#SVGID_16_);}
	.st18{fill:url(#SVGID_17_);}
	.st19{fill:url(#SVGID_18_);}
	.st20{fill:url(#SVGID_19_);}
	.st21{fill:url(#SVGID_20_);}
	.st22{fill:#FFFFFF;}
	.st23{fill:url(#SVGID_21_);}
	.st24{fill:url(#SVGID_22_);}
	.st25{fill:url(#SVGID_23_);}
	.st26{fill:url(#SVGID_24_);}
	.st27{fill:url(#SVGID_25_);}
	.st28{fill:#545454;}
	.st29{fill:#FCFCFC;}
	.st30{fill:#CCCCCC;}
</style>
<g>
	<g>
		<g>
			<linearGradient id="SVGID_1_" gradientUnits="userSpaceOnUse" x1="1617.8518" y1="670.5326" x2="682.1431" y2="314.9956">
				<stop  offset="4.741732e-07" style="stop-color:#FB5640"/>
				<stop  offset="1" style="stop-color:#F9D500"/>
			</linearGradient>
			<path class="st1" d="M1111.55,504.11v34.16h-109.78V348.52h36.59v155.6H1111.55z"/>
			<linearGradient id="SVGID_2_" gradientUnits="userSpaceOnUse" x1="1634.662" y1="626.2911" x2="698.9533" y2="270.7541">
				<stop  offset="4.741732e-07" style="stop-color:#FB5640"/>
				<stop  offset="1" style="stop-color:#F9D500"/>
			</linearGradient>
			<path class="st2" d="M1136.23,362.34c0-10.03,8.13-18.16,18.16-18.16c10.3,0,18.43,8.13,18.43,18.16
				c0,10.3-8.13,18.43-18.43,18.43C1144.36,380.77,1136.23,372.64,1136.23,362.34z M1137.31,400.83h34.43v137.44h-34.43V400.83z"/>
			<linearGradient id="SVGID_3_" gradientUnits="userSpaceOnUse" x1="1646.7639" y1="594.4412" x2="711.0552" y2="238.9042">
				<stop  offset="4.741732e-07" style="stop-color:#FB5640"/>
				<stop  offset="1" style="stop-color:#F9D500"/>
			</linearGradient>
			<path class="st3" d="M1248.46,400.83c0,0,0,0,29.55,0v31.45h-29.55v105.99h-34.43V432.28h-19.25v-31.45h19.25
				c0-28.19,12.47-55.84,49.61-55.84c6.78,0,9.76,0.27,14.37,1.08v28.73c-1.9,0-3.8-0.27-5.96-0.27
				C1254.42,374.54,1248.46,384.03,1248.46,400.83z"/>
			<linearGradient id="SVGID_4_" gradientUnits="userSpaceOnUse" x1="1652.4062" y1="579.5914" x2="716.6975" y2="224.0545">
				<stop  offset="4.741732e-07" style="stop-color:#FB5640"/>
				<stop  offset="1" style="stop-color:#F9D500"/>
			</linearGradient>
			<path class="st4" d="M1430.09,482.97h-101.93c4.88,18.43,20.06,28.19,39.03,28.19c15.72,0,26.57-8.4,30.63-13.55l27.65,16.26
				c-11.11,15.45-32.26,27.92-58.28,27.92c-45.54,0-75.63-30.36-75.63-72.11c0-43.1,32.26-72.11,70.21-72.11
				C1403.26,397.58,1436.33,428.75,1430.09,482.97z M1396.48,456.4c-3.52-17.89-15.72-28.19-34.16-28.19
				c-16.81,0-30.09,10.57-34.16,28.19H1396.48z"/>
		</g>
		<g>
			<path class="st5" d="M1568.63,504.11v34.16h-111.95V348.52h109.51v34.15h-72.92v42.83h66.69v34.16h-66.69v44.45H1568.63z"/>
			<path class="st5" d="M1682.22,538.27l-28.73-44.46l-28.73,44.46h-39.85l46.63-70.75l-44.46-66.69h40.12l26.29,42.83l26.3-42.83
				h40.12l-44.46,66.96l46.62,70.48H1682.22z"/>
			<path class="st5" d="M1887.72,469.69c0,36.05-24.4,72.11-67.23,72.11c-21.14,0-34.97-8.4-43.64-19.52v68.31h-34.43V400.83h34.43
				v16.27c8.67-11.39,22.5-19.52,43.64-19.52C1863.32,397.58,1887.72,433.63,1887.72,469.69z M1852.47,469.69
				c0-21.14-13.55-39.03-37.14-39.03c-23.85,0-37.14,17.89-37.14,39.03s13.28,39.03,37.14,39.03
				C1838.92,508.72,1852.47,490.83,1852.47,469.69z"/>
			<path class="st5" d="M2042.52,482.97h-101.93c4.88,18.43,20.06,28.19,39.03,28.19c15.72,0,26.57-8.4,30.63-13.55l27.65,16.26
				c-11.11,15.45-32.26,27.92-58.28,27.92c-45.54,0-75.63-30.36-75.63-72.11c0-43.1,32.26-72.11,70.21-72.11
				C2015.68,397.58,2048.75,428.75,2042.52,482.97z M2008.9,456.4c-3.52-17.89-15.72-28.19-34.16-28.19
				c-16.81,0-30.09,10.57-34.16,28.19H2008.9z"/>
			<path class="st5" d="M2147.98,397.58v37.41c-40.66-4.88-45.81,21.14-45.81,46.62v56.66h-34.43V400.83h34.43v22.5
				C2112.47,406.25,2131.44,397.58,2147.98,397.58z"/>
			<path class="st5" d="M2171.3,362.34c0-10.03,8.13-18.16,18.16-18.16c10.3,0,18.43,8.13,18.43,18.16
				c0,10.3-8.13,18.43-18.43,18.43C2179.43,380.77,2171.3,372.64,2171.3,362.34z M2172.38,400.83h34.43v137.44h-34.43V400.83z"/>
			<path class="st5" d="M2369.73,482.97h-101.93c4.88,18.43,20.06,28.19,39.03,28.19c15.72,0,26.57-8.4,30.63-13.55l27.65,16.26
				c-11.11,15.45-32.26,27.92-58.28,27.92c-45.54,0-75.63-30.36-75.63-72.11c0-43.1,32.26-72.11,70.21-72.11
				C2342.9,397.58,2375.97,428.75,2369.73,482.97z M2336.12,456.4c-3.52-17.89-15.72-28.19-34.16-28.19
				c-16.81,0-30.09,10.57-34.16,28.19H2336.12z"/>
			<path class="st5" d="M2519.65,454.78v83.49h-34.43v-76.44c0-17.62-7.32-30.9-26.84-30.9c-20.33,0-29.28,15.18-29.28,30.9v76.44
				h-34.16V400.83h34.16v16.81c7.59-11.11,20.06-20.06,40.12-20.06C2503.93,397.58,2519.65,425.77,2519.65,454.78z"/>
			<path class="st5" d="M2648.43,491.1l30.09,17.08c-12.74,20.33-35.24,33.61-61.81,33.61c-41.2,0-72.65-31.99-72.65-72.11
				c0-40.39,31.44-72.11,72.65-72.11c26.56,0,49.06,13.28,61.81,33.34l-30.09,17.35c-6.23-10.57-17.08-17.62-31.71-17.62
				c-23.04,0-37.41,17.62-37.41,39.03s14.37,39.03,37.41,39.03C2631.35,508.72,2642.2,501.67,2648.43,491.1z"/>
			<path class="st5" d="M2826.54,482.97h-101.93c4.88,18.43,20.06,28.19,39.03,28.19c15.72,0,26.57-8.4,30.63-13.55l27.65,16.26
				c-11.11,15.45-32.26,27.92-58.28,27.92c-45.54,0-75.63-30.36-75.63-72.11c0-43.1,32.26-72.11,70.21-72.11
				C2799.7,397.58,2832.78,428.75,2826.54,482.97z M2792.93,456.4c-3.52-17.89-15.72-28.19-34.16-28.19
				c-16.81,0-30.09,10.57-34.16,28.19H2792.93z"/>
		</g>
	</g>
	<g>
		<path class="st5" d="M817.64,560.98l-209.5,209.5c-21.69,21.65-48.95,34.24-77.18,37.74c-10.89,1.34-21.92,1.34-32.81,0
			c-28.24-3.5-55.49-16.09-77.18-37.74l-209.5-209.5c-51.68-51.68-51.68-135.5,0-187.18l209.5-209.5
			c51.68-51.68,135.5-51.68,187.18,0l209.5,209.5C869.32,425.48,869.32,509.3,817.64,560.98z"/>
		<linearGradient id="SVGID_5_" gradientUnits="userSpaceOnUse" x1="570.8684" y1="341.7183" x2="407.2404" y2="613.6295">
			<stop  offset="4.741732e-07" style="stop-color:#FB5640"/>
			<stop  offset="1" style="stop-color:#F9D500"/>
		</linearGradient>
		<path class="st6" d="M678.88,409.41c-16.19,104.01-57.35,161.64-164.21,268.65c-0.05,0.05-0.05,0.1-0.05,0.1l-0.05,0.05h-0.05
			l-0.05-0.05c-0.05,0-0.05-0.05-0.05-0.1c-106.91-107-148.02-164.63-164.21-268.65c-0.33-2.23,1.42-4.27,3.65-4.27
			c1.61,0,3.04,1.09,3.47,2.66c16.47,54.5,54.31,89.91,98.55,106.29c0.33,0.1,0.62,0.19,0.9,0.33c18.7,6.84,38.22,10.21,57.73,10.21
			c19.51,0,39.02-3.37,57.73-10.21c0.33-0.14,0.66-0.24,0.95-0.33c44.24-16.38,82.13-51.79,98.55-106.29
			c0.43-1.57,1.85-2.66,3.47-2.66C677.51,405.13,679.21,407.18,678.88,409.41z"/>
		<linearGradient id="SVGID_6_" gradientUnits="userSpaceOnUse" x1="535.1694" y1="665.9008" x2="376.7939" y2="400.0561">
			<stop  offset="4.741732e-07" style="stop-color:#FB5640"/>
			<stop  offset="1" style="stop-color:#F9D500"/>
		</linearGradient>
		<path class="st7" d="M514.53,524.62v153.57l-0.05-0.05c-0.05,0-0.05-0.05-0.05-0.1c-106.91-107-148.02-164.63-164.21-268.65
			c-0.33-2.23,1.42-4.27,3.65-4.27c1.61,0,3.04,1.09,3.47,2.66c16.47,54.5,54.31,89.91,98.55,106.29c0.33,0.1,0.62,0.19,0.9,0.33
			C475.51,521.25,495.02,524.62,514.53,524.62z"/>
		<linearGradient id="SVGID_7_" gradientUnits="userSpaceOnUse" x1="658.3365" y1="391.3075" x2="493.4966" y2="665.2325">
			<stop  offset="4.741732e-07" style="stop-color:#FB5640"/>
			<stop  offset="1" style="stop-color:#F9D500"/>
		</linearGradient>
		<path class="st8" d="M678.88,409.41c-16.19,104.01-57.35,161.64-164.21,268.65c-0.05,0.05-0.05,0.1-0.05,0.1l-0.05,0.05h-0.05
			V524.62c19.51,0,39.02-3.37,57.73-10.21c0.33-0.14,0.66-0.24,0.95-0.33c44.24-16.38,82.13-51.79,98.55-106.29
			c0.43-1.57,1.85-2.66,3.47-2.66C677.51,405.13,679.21,407.18,678.88,409.41z"/>
		<radialGradient id="SVGID_8_" cx="481.5622" cy="355.4546" r="105.011" gradientUnits="userSpaceOnUse">
			<stop  offset="0" style="stop-color:#F9D500"/>
			<stop  offset="1" style="stop-color:#FB5640"/>
		</radialGradient>
		<circle class="st9" cx="514.55" cy="396.12" r="72.95"/>
	</g>
</g>
</svg>
