<?xml version="1.0" encoding="utf-8"?>
<!-- Generator: Adobe Illustrator 25.0.0, SVG Export Plug-In . SVG Version: 6.00 Build 0)  -->
<svg version="1.1" id="Layer_1" xmlns="http://www.w3.org/2000/svg" xmlns:xlink="http://www.w3.org/1999/xlink" x="0px" y="0px"
	 viewBox="0 0 3000 3000" style="enable-background:new 0 0 3000 3000;" xml:space="preserve">
<style type="text/css">
	.st0{fill:#00253C;}
	.st1{fill:url(#SVGID_1_);}
	.st2{fill:url(#SVGID_2_);}
	.st3{fill:url(#SVGID_3_);}
	.st4{fill:url(#SVGID_4_);}
	.st5{fill:#FFFFFF;}
	.st6{fill:url(#SVGID_5_);}
	.st7{fill:url(#SVGID_6_);}
	.st8{fill:url(#SVGID_7_);}
	.st9{fill:url(#SVGID_8_);}
</style>
<g>
	<path class="st0" d="M2568.16,1829.85l-738.33,738.33c-76.45,76.3-172.5,120.69-272.02,133.01c-38.38,4.74-77.24,4.74-115.63,0
		c-99.52-12.32-195.56-56.71-272.02-133.01l-738.33-738.33c-182.13-182.13-182.13-477.53,0-659.66l738.33-738.33
		c182.13-182.13,477.53-182.13,659.66,0l738.33,738.33C2750.3,1352.32,2750.3,1647.72,2568.16,1829.85z"/>
	<linearGradient id="SVGID_1_" gradientUnits="userSpaceOnUse" x1="1698.4755" y1="1057.1257" x2="1121.8088" y2="2015.4099">
		<stop  offset="4.741732e-07" style="stop-color:#FB5640"/>
		<stop  offset="1" style="stop-color:#F9D500"/>
	</linearGradient>
	<path class="st1" d="M2079.14,1295.68c-57.05,366.56-202.1,569.67-578.71,946.78c-0.17,0.17-0.17,0.33-0.17,0.33l-0.17,0.17h-0.17
		l-0.17-0.17c-0.17,0-0.17-0.17-0.17-0.33c-376.77-377.1-521.65-580.21-578.7-946.78c-1.17-7.86,5.02-15.06,12.88-15.06
		c5.69,0,10.71,3.85,12.21,9.37c58.05,192.07,191.4,316.88,347.32,374.59c1.17,0.33,2.17,0.67,3.18,1.17
		c65.92,24.09,134.68,35.97,203.44,35.97c68.76,0,137.52-11.88,203.44-35.97c1.17-0.5,2.34-0.84,3.35-1.17
		c155.93-57.72,289.44-182.53,347.32-374.59c1.51-5.52,6.52-9.37,12.21-9.37C2074.29,1280.62,2080.31,1287.82,2079.14,1295.68z"/>
	<linearGradient id="SVGID_2_" gradientUnits="userSpaceOnUse" x1="1572.6632" y1="2199.6274" x2="1014.5073" y2="1262.7229">
		<stop  offset="4.741732e-07" style="stop-color:#FB5640"/>
		<stop  offset="1" style="stop-color:#F9D500"/>
	</linearGradient>
	<path class="st2" d="M1499.93,1701.73v541.23l-0.17-0.17c-0.17,0-0.17-0.17-0.17-0.33c-376.77-377.1-521.65-580.21-578.7-946.78
		c-1.17-7.86,5.02-15.06,12.88-15.06c5.69,0,10.71,3.85,12.21,9.37c58.05,192.07,191.4,316.88,347.32,374.59
		c1.17,0.33,2.17,0.67,3.18,1.17C1362.41,1689.85,1431.18,1701.73,1499.93,1701.73z"/>
	<linearGradient id="SVGID_3_" gradientUnits="userSpaceOnUse" x1="2006.7354" y1="1231.8905" x2="1425.7976" y2="2197.2722">
		<stop  offset="4.741732e-07" style="stop-color:#FB5640"/>
		<stop  offset="1" style="stop-color:#F9D500"/>
	</linearGradient>
	<path class="st3" d="M2079.14,1295.68c-57.05,366.56-202.1,569.67-578.71,946.78c-0.17,0.17-0.17,0.33-0.17,0.33l-0.17,0.17h-0.17
		v-541.23c68.76,0,137.52-11.88,203.44-35.97c1.17-0.5,2.34-0.84,3.35-1.17c155.93-57.72,289.44-182.53,347.32-374.59
		c1.51-5.52,6.52-9.37,12.21-9.37C2074.29,1280.62,2080.31,1287.82,2079.14,1295.68z"/>
	<radialGradient id="SVGID_4_" cx="1383.7377" cy="1105.5359" r="370.0856" gradientUnits="userSpaceOnUse">
		<stop  offset="0" style="stop-color:#F9D500"/>
		<stop  offset="1" style="stop-color:#FB5640"/>
	</radialGradient>
	<circle class="st4" cx="1500" cy="1248.85" r="257.1"/>
</g>
</svg>
